<svg width="643.500341796875px" height="122px" xmlns="http://www.w3.org/2000/svg" viewBox="-71.75017089843749 14 643.500341796875 122" style="background: rgba(0, 0, 0, 0);" preserveAspectRatio="xMidYMid"><defs><linearGradient id="editing-shiny-gradient" x1="0.04322727117869957" x2="0.9567727288213004" y1="0.2966316784620999" y2="0.7033683215379001" gradientUnits="objectBoundingBox"><stop offset="0.0" stop-color="#ffb200"></stop><stop offset="0.5" stop-color="#e10057"></stop><stop offset="1.0" stop-color="#5A1A80"></stop></linearGradient><linearGradient id="editing-shiny-gradient2" x1="0" x2="0" y1="0" y2="1"><stop offset="0.2" stop-color="#fff" stop-opacity="0.8"></stop><stop offset="0.8" stop-color="#fff" stop-opacity="0"></stop></linearGradient><filter id="editing-shiny2" x="-100%" y="-100%" width="300%" height="300%"><feMorphology operator="erode" radius="2"></feMorphology></filter><filter id="editing-shiny" x="-100%" y="-100%" width="300%" height="300%"><feFlood flood-color="#fff" result="flood"></feFlood><feConvolveMatrix in="SourceGraphic" result="conv" order="8,8" divisor="1" kernelMatrix="0 0 0 0 0 0 0 0 0 0 0 1 1 0 0 0 0 0 0 1 1 0 0 0 0 0 1 0 0 1 0 0 0 0 1 0 0 1 0 0 0 1 0 0 0 0 1 0 0 1 1 0 0 1 1 0 0 0 0 1 1 0 0 0 "></feConvolveMatrix><feOffset dx="0" dy="4" in="conv" result="offset"></feOffset><feComposite operator="in" in="flood" in2="offset" result="comp"></feComposite><feGaussianBlur in="offset" stdDeviation="3" result="shadow"></feGaussianBlur><feColorMatrix in="shadow" type="matrix" values="0.7 0 0 0 0  0 0.7 0 0 0  0 0 0.7 0 0  0 0 0 0.3 0" result="dark-shadow"></feColorMatrix><feOffset dx="0" dy="4" in="dark-shadow" result="offset-shadow"></feOffset><feOffset dx="0" dy="2" in="conv" result="offset-2"></feOffset><feComposite operator="out" in="offset" in2="offset-2" result="edge-diff"></feComposite><feGaussianBlur in="edge-diff" stdDeviation="1" result="edge-blur"></feGaussianBlur><feColorMatrix in="edge-blur" result="edge-shadow" type="matrix" values="0 0 0 0 0  0 0 0 0 0  0 0 0 0 0  0 0 0 0.5 0"></feColorMatrix><feComposite operator="in" in="edge-shadow" in2="offset" result="edge-shadow-in"></feComposite><feOffset dx="0" dy="1" in="edge-shadow-in" result="edge-shadow-final"></feOffset><feMerge result="out"><feMergeNode in="offset-shadow"></feMergeNode><feMergeNode in="comp"></feMergeNode><feMergeNode in="edge-shadow-final"></feMergeNode><feMergeNode in="SourceGraphic"></feMergeNode></feMerge></filter></defs><g filter="url(#editing-shiny)"><g transform="translate(21.543222665786743, 99)"><path d="M28.42-9.86L28.42-9.86L28.42-9.86Q29.63-8.32 29.63-5.82L29.63-5.82L29.63-5.82Q29.63-2.37 27.07-0.54L27.07-0.54L27.07-0.54Q24.51 1.28 20.48 1.28L20.48 1.28L20.48 1.28Q18.18 1.28 14.66 0.77L14.66 0.77L14.66 0.77Q7.74-0.32 5.63-0.32L5.63-0.32L5.63-0.32Q3.52-0.32 2.69-0.22L2.69-0.22L2.69-0.22Q1.86-0.13 0.51 0L0.51 0L8.38-42.24L35.97-42.24L35.97-42.24Q35.97-38.34 34.08-36.29L34.08-36.29L34.08-36.29Q32.19-34.24 28.48-34.24L28.48-34.24L28.48-34.24Q24.77-34.24 20.99-35.97L20.99-35.97L19.01-24.77L30.40-24.77L30.40-24.77Q30.40-21.38 28.74-19.49L28.74-19.49L28.74-19.49Q27.07-17.60 24.29-17.60L24.29-17.60L24.29-17.60Q21.50-17.60 19.78-18.24L19.78-18.24L19.78-18.24Q18.05-18.88 17.86-19.07L17.86-19.07L15.55-6.98L15.55-6.98Q17.09-6.78 19.97-6.78L19.97-6.78L19.97-6.78Q24.90-6.78 28.42-9.86ZM81.60 1.28L81.60 1.28L81.60 1.28Q73.86 1.28 73.86-4.74L73.86-4.74L73.86-4.74Q73.86-7.36 74.98-12.45L74.98-12.45L74.98-12.45Q76.10-17.54 76.48-19.58L76.48-19.58L76.48-19.58Q77.38-24.26 77.38-25.73L77.38-25.73L77.38-25.73Q77.38-28.99 74.94-28.99L74.94-28.99L74.94-28.99Q73.34-28.99 71.81-26.78L71.81-26.78L71.81-26.78Q70.27-24.58 69.57-20.16L69.57-20.16L65.60 0L53.12 1.28L56.58-16.13L56.58-16.13Q57.15-19.01 57.66-22.27L57.66-22.27L57.66-22.27Q58.18-25.54 58.18-26.05L58.18-26.05L58.18-26.05Q58.18-28.99 56-28.99L56-28.99L56-28.99Q54.53-28.99 52.93-26.82L52.93-26.82L52.93-26.82Q51.33-24.64 50.43-20.16L50.43-20.16L46.53 0L33.92 1.28L40.64-32.64L51.07-33.92L49.98-27.46L49.98-27.46Q51.65-30.91 54.72-32.42L54.72-32.42L54.72-32.42Q57.79-33.92 62.59-33.92L62.59-33.92L62.59-33.92Q65.34-33.92 67.14-32.58L67.14-32.58L67.14-32.58Q68.93-31.23 69.50-29.06L69.50-29.06L69.50-29.06Q70.59-31.30 73.38-32.61L73.38-32.61L73.38-32.61Q76.16-33.92 79.58-33.92L79.58-33.92L79.58-33.92Q83.01-33.92 84.70-33.18L84.70-33.18L84.70-33.18Q86.40-32.45 87.42-31.23L87.42-31.23L87.42-31.23Q89.15-28.99 89.15-24.90L89.15-24.90L89.15-24.90Q89.15-20.86 87.42-12.48L87.42-12.48L87.42-12.48Q86.53-8.38 86.53-6.88L86.53-6.88L86.53-6.88Q86.53-5.38 87.39-4.48L87.39-4.48L87.39-4.48Q88.26-3.58 89.54-3.46L89.54-3.46L89.54-3.46Q88.90-1.28 86.69 0L86.69 0L86.69 0Q84.48 1.28 81.60 1.28ZM109.82-3.52L109.82-3.52L109.82-3.52Q107.84 1.28 101.50 1.28L101.50 1.28L101.50 1.28Q98.24 1.28 96.19-0.96L96.19-0.96L96.19-0.96Q94.46-2.94 94.46-4.93L94.46-4.93L94.46-4.93Q94.46-10.11 96.83-20.22L96.83-20.22L99.20-32.64L112.19-33.92L108.29-13.70L108.29-13.70Q107.20-8.96 107.20-7.30L107.20-7.30L107.20-7.30Q107.20-3.65 109.82-3.52ZM100.35-41.54L100.35-41.54L100.35-41.54Q100.35-44.03 102.43-45.38L102.43-45.38L102.43-45.38Q104.51-46.72 107.52-46.72L107.52-46.72L107.52-46.72Q110.53-46.72 112.35-45.38L112.35-45.38L112.35-45.38Q114.18-44.03 114.18-41.54L114.18-41.54L114.18-41.54Q114.18-39.04 112.16-37.76L112.16-37.76L112.16-37.76Q110.14-36.48 107.14-36.48L107.14-36.48L107.14-36.48Q104.13-36.48 102.24-37.76L102.24-37.76L102.24-37.76Q100.35-39.04 100.35-41.54ZM161.86-13.25L161.86-13.25L161.86-13.25Q163.52-12.03 163.52-9.44L163.52-9.44L163.52-9.44Q163.52-6.85 162.40-5.02L162.40-5.02L162.40-5.02Q161.28-3.20 159.10-1.79L159.10-1.79L159.10-1.79Q154.43 1.22 146.27 1.22L146.27 1.22L146.27 1.22Q138.11 1.22 133.66-3.04L133.66-3.04L133.66-3.04Q129.22-7.30 129.22-14.85L129.22-14.85L129.22-14.85Q129.22-25.54 134.78-33.66L134.78-33.66L134.78-33.66Q139.01-39.68 146.56-42.24L146.56-42.24L146.56-42.24Q150.46-43.52 154.30-43.52L154.30-43.52L154.30-43.52Q158.14-43.52 160.51-43.01L160.51-43.01L160.51-43.01Q162.88-42.50 164.67-41.47L164.67-41.47L164.67-41.47Q168.58-39.23 168.58-35.65L168.58-35.65L168.58-35.65Q168.58-32.38 165.50-29.95L165.50-29.95L165.50-29.95Q162.69-27.78 160.38-27.78L160.38-27.78L160.38-27.78Q158.08-27.78 157.12-28.10L157.12-28.10L157.12-28.10Q157.38-30.40 157.38-31.90L157.38-31.90L157.38-31.90Q157.38-33.41 157.31-34.50L157.31-34.50L157.31-34.50Q157.25-35.58 156.93-36.61L156.93-36.61L156.93-36.61Q156.29-38.98 154.34-38.98L154.34-38.98L154.34-38.98Q152.38-38.98 150.43-37.15L150.43-37.15L150.43-37.15Q148.48-35.33 146.82-32.26L146.82-32.26L146.82-32.26Q143.04-25.28 143.04-17.02L143.04-17.02L143.04-17.02Q143.04-13.06 145.28-10.78L145.28-10.78L145.28-10.78Q147.52-8.51 152.32-8.51L152.32-8.51L152.32-8.51Q155.90-8.51 159.30-10.88L159.30-10.88L159.30-10.88Q160.77-11.90 161.86-13.25ZM171.62-1.92L171.62-1.92L171.62-1.92Q170.11-3.58 169.44-6.21L169.44-6.21L169.44-6.21Q168.77-8.83 168.77-13.12L168.77-13.12L168.77-13.12Q168.77-17.41 170.24-21.31L170.24-21.31L170.24-21.31Q171.71-25.22 174.40-28.03L174.40-28.03L174.40-28.03Q179.90-33.92 188.99-33.92L188.99-33.92L188.99-33.92Q192.26-33.92 194.62-32.83L194.62-32.83L205.57-33.92L200.83-8.96L200.83-8.96Q200.64-8.19 200.64-6.78L200.64-6.78L200.64-6.78Q200.64-5.38 201.50-4.48L201.50-4.48L201.50-4.48Q202.37-3.58 203.65-3.46L203.65-3.46L203.65-3.46Q203.01-1.28 200.67 0L200.67 0L200.67 0Q198.34 1.28 195.71 1.28L195.71 1.28L195.71 1.28Q193.09 1.28 191.33 0.29L191.33 0.29L191.33 0.29Q189.57-0.70 189.06-2.37L189.06-2.37L189.06-2.37Q188.03-0.77 185.86 0.26L185.86 0.26L185.86 0.26Q183.68 1.28 180.77 1.28L180.77 1.28L180.77 1.28Q177.86 1.28 175.49 0.51L175.49 0.51L175.49 0.51Q173.12-0.26 171.62-1.92ZM185.12-27.90L185.12-27.90L185.12-27.90Q184.38-26.75 183.74-24.80L183.74-24.80L183.74-24.80Q183.10-22.85 182.05-17.63L182.05-17.63L182.05-17.63Q180.99-12.42 180.99-8.70L180.99-8.70L180.99-8.70Q180.99-4.99 181.57-3.90L181.57-3.90L181.57-3.90Q182.14-2.82 183.17-2.82L183.17-2.82L183.17-2.82Q185.22-2.82 186.72-4.77L186.72-4.77L186.72-4.77Q188.22-6.72 188.80-10.18L188.80-10.18L192.19-28.93L192.19-28.93Q190.85-30.08 189.28-30.08L189.28-30.08L189.28-30.08Q187.71-30.08 186.78-29.57L186.78-29.57L186.78-29.57Q185.86-29.06 185.12-27.90ZM224.32-3.52L224.32-3.52L224.32-3.52Q222.34 1.28 216 1.28L216 1.28L216 1.28Q212.80 1.28 210.75-0.96L210.75-0.96L210.75-0.96Q209.09-2.82 209.09-4.93L209.09-4.93L209.09-4.93Q209.09-9.73 211.33-20.22L211.33-20.22L216-44.80L228.99-46.08L222.78-13.70L222.78-13.70Q221.70-8.96 221.70-7.30L221.70-7.30L221.70-7.30Q221.70-3.65 224.32-3.52ZM261.18-26.62L261.18-26.62L261.18-26.62Q261.18-23.94 258.94-22.27L258.94-22.27L258.94-22.27Q256.70-20.61 253.06-20.61L253.06-20.61L253.06-20.61Q251.52-20.61 250.62-21.06L250.62-21.06L250.62-21.06Q251.33-22.72 251.55-24.80L251.55-24.80L251.55-24.80Q251.78-26.88 251.78-27.46L251.78-27.46L251.78-27.46Q251.78-30.14 249.92-30.14L249.92-30.14L249.92-30.14Q248.64-30.14 247.20-28.54L247.20-28.54L247.20-28.54Q245.76-26.94 244.54-24.45L244.54-24.45L244.54-24.45Q241.86-18.69 241.86-12.86L241.86-12.86L241.86-12.86Q241.86-9.66 243.07-8.22L243.07-8.22L243.07-8.22Q244.29-6.78 246.98-6.78L246.98-6.78L246.98-6.78Q250.69-6.78 253.63-9.86L253.63-9.86L253.63-9.86Q254.46-10.82 254.91-11.90L254.91-11.90L254.91-11.90Q257.34-10.62 257.34-7.10L257.34-7.10L257.34-7.10Q257.34-3.52 253.38-1.15L253.38-1.15L253.38-1.15Q249.28 1.28 242.75 1.28L242.75 1.28L242.75 1.28Q229.76 1.28 229.76-12.48L229.76-12.48L229.76-12.48Q229.76-22.53 235.46-28.29L235.46-28.29L235.46-28.29Q240.96-33.92 251.07-33.92L251.07-33.92L251.07-33.92Q261.18-33.92 261.18-26.62ZM283.46-2.69L283.46-2.69L283.46-2.69Q280.38 1.28 272.77 1.28L272.77 1.28L272.77 1.28Q268.80 1.28 265.92-1.12L265.92-1.12L265.92-1.12Q263.04-3.52 263.04-6.98L263.04-6.98L263.04-6.98Q263.04-8.90 263.23-9.86L263.23-9.86L267.52-32.64L280.51-33.92L275.84-9.22L275.84-9.22Q275.58-7.81 275.58-6.98L275.58-6.98L275.58-6.98Q275.58-3.26 277.82-3.26L277.82-3.26L277.82-3.26Q280.32-3.26 282.11-6.66L282.11-6.66L282.11-6.66Q282.69-7.74 282.94-9.15L282.94-9.15L287.49-32.64L300.10-33.92L295.36-8.96L295.36-8.96Q295.17-8 295.17-6.98L295.17-6.98L295.17-6.98Q295.17-5.95 295.74-4.83L295.74-4.83L295.74-4.83Q296.32-3.71 298.18-3.46L298.18-3.46L298.18-3.46Q297.79-1.92 296.45-0.90L296.45-0.90L296.45-0.90Q293.63 1.28 290.59 1.28L290.59 1.28L290.59 1.28Q287.55 1.28 285.76 0.19L285.76 0.19L285.76 0.19Q283.97-0.90 283.46-2.69ZM318.85-3.52L318.85-3.52L318.85-3.52Q316.86 1.28 310.53 1.28L310.53 1.28L310.53 1.28Q307.33 1.28 305.28-0.96L305.28-0.96L305.28-0.96Q303.62-2.82 303.62-4.93L303.62-4.93L303.62-4.93Q303.62-9.73 305.86-20.22L305.86-20.22L310.53-44.80L323.52-46.08L317.31-13.70L317.31-13.70Q316.22-8.96 316.22-7.30L316.22-7.30L316.22-7.30Q316.22-3.65 318.85-3.52ZM327.07-1.92L327.07-1.92L327.07-1.92Q325.57-3.58 324.90-6.21L324.90-6.21L324.90-6.21Q324.22-8.83 324.22-13.12L324.22-13.12L324.22-13.12Q324.22-17.41 325.70-21.31L325.70-21.31L325.70-21.31Q327.17-25.22 329.86-28.03L329.86-28.03L329.86-28.03Q335.36-33.92 344.45-33.92L344.45-33.92L344.45-33.92Q347.71-33.92 350.08-32.83L350.08-32.83L361.02-33.92L356.29-8.96L356.29-8.96Q356.10-8.19 356.10-6.78L356.10-6.78L356.10-6.78Q356.10-5.38 356.96-4.48L356.96-4.48L356.96-4.48Q357.82-3.58 359.10-3.46L359.10-3.46L359.10-3.46Q358.46-1.28 356.13 0L356.13 0L356.13 0Q353.79 1.28 351.17 1.28L351.17 1.28L351.17 1.28Q348.54 1.28 346.78 0.29L346.78 0.29L346.78 0.29Q345.02-0.70 344.51-2.37L344.51-2.37L344.51-2.37Q343.49-0.77 341.31 0.26L341.31 0.26L341.31 0.26Q339.14 1.28 336.22 1.28L336.22 1.28L336.22 1.28Q333.31 1.28 330.94 0.51L330.94 0.51L330.94 0.51Q328.58-0.26 327.07-1.92ZM340.58-27.90L340.58-27.90L340.58-27.90Q339.84-26.75 339.20-24.80L339.20-24.80L339.20-24.80Q338.56-22.85 337.50-17.63L337.50-17.63L337.50-17.63Q336.45-12.42 336.45-8.70L336.45-8.70L336.45-8.70Q336.45-4.99 337.02-3.90L337.02-3.90L337.02-3.90Q337.60-2.82 338.62-2.82L338.62-2.82L338.62-2.82Q340.67-2.82 342.18-4.77L342.18-4.77L342.18-4.77Q343.68-6.72 344.26-10.18L344.26-10.18L347.65-28.93L347.65-28.93Q346.30-30.08 344.74-30.08L344.74-30.08L344.74-30.08Q343.17-30.08 342.24-29.57L342.24-29.57L342.24-29.57Q341.31-29.06 340.58-27.90ZM365.50-6.40L365.50-6.40L365.50-6.40Q365.50-8.13 366.40-12.48L366.40-12.48L369.79-29.76L366.02-29.76L366.27-31.68L366.27-31.68Q373.95-33.98 381.38-39.62L381.38-39.62L384.45-39.62L382.91-32.64L387.90-32.64L387.33-29.76L382.40-29.76L379.14-12.48L379.14-12.48Q378.30-8.51 378.30-7.17L378.30-7.17L378.30-7.17Q378.30-4.10 380.99-3.46L380.99-3.46L380.99-3.46Q380.35-1.28 378.05 0L378.05 0L378.05 0Q375.74 1.28 372.48 1.28L372.48 1.28L372.48 1.28Q369.22 1.28 367.36-0.77L367.36-0.77L367.36-0.77Q365.50-2.82 365.50-6.40ZM401.28 1.28L401.28 1.28L401.28 1.28Q387.20 1.28 387.20-11.97L387.20-11.97L387.20-11.97Q387.20-21.38 392.38-27.46L392.38-27.46L392.38-27.46Q397.89-33.92 407.42-33.92L407.42-33.92L407.42-33.92Q414.34-33.92 417.86-30.72L417.86-30.72L417.86-30.72Q421.38-27.52 421.38-20.80L421.38-20.80L421.38-20.80Q421.38-10.56 415.87-4.61L415.87-4.61L415.87-4.61Q410.50 1.28 401.28 1.28ZM402.94-26.56L402.94-26.56L402.94-26.56Q402.18-24.83 401.57-22.24L401.57-22.24L401.57-22.24Q400.96-19.65 400.19-15.55L400.19-15.55L400.19-15.55Q399.42-11.46 399.42-6.40L399.42-6.40L399.42-6.40Q399.42-4.74 399.97-3.65L399.97-3.65L399.97-3.65Q400.51-2.56 401.98-2.56L401.98-2.56L401.98-2.56Q403.46-2.56 404.38-3.26L404.38-3.26L404.38-3.26Q405.31-3.97 406.02-5.63L406.02-5.63L406.02-5.63Q407.30-8.58 408.32-14.05L408.32-14.05L408.32-14.05Q409.34-19.52 409.44-21.89L409.44-21.89L409.44-21.89Q409.54-24.26 409.54-26.02L409.54-26.02L409.54-26.02Q409.54-27.78 409.02-28.93L409.02-28.93L409.02-28.93Q408.51-30.08 407.07-30.08L407.07-30.08L407.07-30.08Q405.63-30.08 404.67-29.18L404.67-29.18L404.67-29.18Q403.71-28.29 402.94-26.56ZM445.18-17.98L445.18-17.98L445.18-17.98Q447.49-22.08 447.49-26.24L447.49-26.24L447.49-26.24Q447.49-28.99 445.50-28.99L445.50-28.99L445.50-28.99Q443.97-28.99 442.37-26.37L442.37-26.37L442.37-26.37Q440.70-23.74 440.19-20.35L440.19-20.35L436.86 0L423.62 1.28L430.14-32.64L440.70-33.92L439.55-27.46L439.55-27.46Q442.69-33.92 449.73-33.92L449.73-33.92L449.73-33.92Q453.44-33.92 455.46-32L455.46-32L455.46-32Q457.47-30.08 457.47-26.14L457.47-26.14L457.47-26.14Q457.47-22.21 454.88-19.71L454.88-19.71L454.88-19.71Q452.29-17.22 447.87-17.22L447.87-17.22L447.87-17.22Q445.95-17.22 445.18-17.98Z" fill="url(#editing-shiny-gradient)"></path></g></g><g filter="url(#editing-shiny2)"><g transform="translate(21.33692193031311, 99)"><path d="M28.42-9.86L28.42-9.86L28.42-9.86Q29.63-8.32 29.63-5.82L29.63-5.82L29.63-5.82Q29.63-2.37 27.07-0.54L27.07-0.54L27.07-0.54Q24.51 1.28 20.48 1.28L20.48 1.28L20.48 1.28Q18.18 1.28 14.66 0.77L14.66 0.77L14.66 0.77Q7.74-0.32 5.63-0.32L5.63-0.32L5.63-0.32Q3.52-0.32 2.69-0.22L2.69-0.22L2.69-0.22Q1.86-0.13 0.51 0L0.51 0L8.38-42.24L35.97-42.24L35.97-42.24Q35.97-38.34 34.08-36.29L34.08-36.29L34.08-36.29Q32.19-34.24 28.48-34.24L28.48-34.24L28.48-34.24Q24.77-34.24 20.99-35.97L20.99-35.97L19.01-24.77L30.40-24.77L30.40-24.77Q30.40-21.38 28.74-19.49L28.74-19.49L28.74-19.49Q27.07-17.60 24.29-17.60L24.29-17.60L24.29-17.60Q21.50-17.60 19.78-18.24L19.78-18.24L19.78-18.24Q18.05-18.88 17.86-19.07L17.86-19.07L15.55-6.98L15.55-6.98Q17.09-6.78 19.97-6.78L19.97-6.78L19.97-6.78Q24.90-6.78 28.42-9.86ZM81.60 1.28L81.60 1.28L81.60 1.28Q73.86 1.28 73.86-4.74L73.86-4.74L73.86-4.74Q73.86-7.36 74.98-12.45L74.98-12.45L74.98-12.45Q76.10-17.54 76.48-19.58L76.48-19.58L76.48-19.58Q77.38-24.26 77.38-25.73L77.38-25.73L77.38-25.73Q77.38-28.99 74.94-28.99L74.94-28.99L74.94-28.99Q73.34-28.99 71.81-26.78L71.81-26.78L71.81-26.78Q70.27-24.58 69.57-20.16L69.57-20.16L65.60 0L53.12 1.28L56.58-16.13L56.58-16.13Q57.15-19.01 57.66-22.27L57.66-22.27L57.66-22.27Q58.18-25.54 58.18-26.05L58.18-26.05L58.18-26.05Q58.18-28.99 56-28.99L56-28.99L56-28.99Q54.53-28.99 52.93-26.82L52.93-26.82L52.93-26.82Q51.33-24.64 50.43-20.16L50.43-20.16L46.53 0L33.92 1.28L40.64-32.64L51.07-33.92L49.98-27.46L49.98-27.46Q51.65-30.91 54.72-32.42L54.72-32.42L54.72-32.42Q57.79-33.92 62.59-33.92L62.59-33.92L62.59-33.92Q65.34-33.92 67.14-32.58L67.14-32.58L67.14-32.58Q68.93-31.23 69.50-29.06L69.50-29.06L69.50-29.06Q70.59-31.30 73.38-32.61L73.38-32.61L73.38-32.61Q76.16-33.92 79.58-33.92L79.58-33.92L79.58-33.92Q83.01-33.92 84.70-33.18L84.70-33.18L84.70-33.18Q86.40-32.45 87.42-31.23L87.42-31.23L87.42-31.23Q89.15-28.99 89.15-24.90L89.15-24.90L89.15-24.90Q89.15-20.86 87.42-12.48L87.42-12.48L87.42-12.48Q86.53-8.38 86.53-6.88L86.53-6.88L86.53-6.88Q86.53-5.38 87.39-4.48L87.39-4.48L87.39-4.48Q88.26-3.58 89.54-3.46L89.54-3.46L89.54-3.46Q88.90-1.28 86.69 0L86.69 0L86.69 0Q84.48 1.28 81.60 1.28ZM109.82-3.52L109.82-3.52L109.82-3.52Q107.84 1.28 101.50 1.28L101.50 1.28L101.50 1.28Q98.24 1.28 96.19-0.96L96.19-0.96L96.19-0.96Q94.46-2.94 94.46-4.93L94.46-4.93L94.46-4.93Q94.46-10.11 96.83-20.22L96.83-20.22L99.20-32.64L112.19-33.92L108.29-13.70L108.29-13.70Q107.20-8.96 107.20-7.30L107.20-7.30L107.20-7.30Q107.20-3.65 109.82-3.52ZM100.35-41.54L100.35-41.54L100.35-41.54Q100.35-44.03 102.43-45.38L102.43-45.38L102.43-45.38Q104.51-46.72 107.52-46.72L107.52-46.72L107.52-46.72Q110.53-46.72 112.35-45.38L112.35-45.38L112.35-45.38Q114.18-44.03 114.18-41.54L114.18-41.54L114.18-41.54Q114.18-39.04 112.16-37.76L112.16-37.76L112.16-37.76Q110.14-36.48 107.14-36.48L107.14-36.48L107.14-36.48Q104.13-36.48 102.24-37.76L102.24-37.76L102.24-37.76Q100.35-39.04 100.35-41.54ZM161.86-13.25L161.86-13.25L161.86-13.25Q163.52-12.03 163.52-9.44L163.52-9.44L163.52-9.44Q163.52-6.85 162.40-5.02L162.40-5.02L162.40-5.02Q161.28-3.20 159.10-1.79L159.10-1.79L159.10-1.79Q154.43 1.22 146.27 1.22L146.27 1.22L146.27 1.22Q138.11 1.22 133.66-3.04L133.66-3.04L133.66-3.04Q129.22-7.30 129.22-14.85L129.22-14.85L129.22-14.85Q129.22-25.54 134.78-33.66L134.78-33.66L134.78-33.66Q139.01-39.68 146.56-42.24L146.56-42.24L146.56-42.24Q150.46-43.52 154.30-43.52L154.30-43.52L154.30-43.52Q158.14-43.52 160.51-43.01L160.51-43.01L160.51-43.01Q162.88-42.50 164.67-41.47L164.67-41.47L164.67-41.47Q168.58-39.23 168.58-35.65L168.58-35.65L168.58-35.65Q168.58-32.38 165.50-29.95L165.50-29.95L165.50-29.95Q162.69-27.78 160.38-27.78L160.38-27.78L160.38-27.78Q158.08-27.78 157.12-28.10L157.12-28.10L157.12-28.10Q157.38-30.40 157.38-31.90L157.38-31.90L157.38-31.90Q157.38-33.41 157.31-34.50L157.31-34.50L157.31-34.50Q157.25-35.58 156.93-36.61L156.93-36.61L156.93-36.61Q156.29-38.98 154.34-38.98L154.34-38.98L154.34-38.98Q152.38-38.98 150.43-37.15L150.43-37.15L150.43-37.15Q148.48-35.33 146.82-32.26L146.82-32.26L146.82-32.26Q143.04-25.28 143.04-17.02L143.04-17.02L143.04-17.02Q143.04-13.06 145.28-10.78L145.28-10.78L145.28-10.78Q147.52-8.51 152.32-8.51L152.32-8.51L152.32-8.51Q155.90-8.51 159.30-10.88L159.30-10.88L159.30-10.88Q160.77-11.90 161.86-13.25ZM171.62-1.92L171.62-1.92L171.62-1.92Q170.11-3.58 169.44-6.21L169.44-6.21L169.44-6.21Q168.77-8.83 168.77-13.12L168.77-13.12L168.77-13.12Q168.77-17.41 170.24-21.31L170.24-21.31L170.24-21.31Q171.71-25.22 174.40-28.03L174.40-28.03L174.40-28.03Q179.90-33.92 188.99-33.92L188.99-33.92L188.99-33.92Q192.26-33.92 194.62-32.83L194.62-32.83L205.57-33.92L200.83-8.96L200.83-8.96Q200.64-8.19 200.64-6.78L200.64-6.78L200.64-6.78Q200.64-5.38 201.50-4.48L201.50-4.48L201.50-4.48Q202.37-3.58 203.65-3.46L203.65-3.46L203.65-3.46Q203.01-1.28 200.67 0L200.67 0L200.67 0Q198.34 1.28 195.71 1.28L195.71 1.28L195.71 1.28Q193.09 1.28 191.33 0.29L191.33 0.29L191.33 0.29Q189.57-0.70 189.06-2.37L189.06-2.37L189.06-2.37Q188.03-0.77 185.86 0.26L185.86 0.26L185.86 0.26Q183.68 1.28 180.77 1.28L180.77 1.28L180.77 1.28Q177.86 1.28 175.49 0.51L175.49 0.51L175.49 0.51Q173.12-0.26 171.62-1.92ZM185.12-27.90L185.12-27.90L185.12-27.90Q184.38-26.75 183.74-24.80L183.74-24.80L183.74-24.80Q183.10-22.85 182.05-17.63L182.05-17.63L182.05-17.63Q180.99-12.42 180.99-8.70L180.99-8.70L180.99-8.70Q180.99-4.99 181.57-3.90L181.57-3.90L181.57-3.90Q182.14-2.82 183.17-2.82L183.17-2.82L183.17-2.82Q185.22-2.82 186.72-4.77L186.72-4.77L186.72-4.77Q188.22-6.72 188.80-10.18L188.80-10.18L192.19-28.93L192.19-28.93Q190.85-30.08 189.28-30.08L189.28-30.08L189.28-30.08Q187.71-30.08 186.78-29.57L186.78-29.57L186.78-29.57Q185.86-29.06 185.12-27.90ZM224.32-3.52L224.32-3.52L224.32-3.52Q222.34 1.28 216 1.28L216 1.28L216 1.28Q212.80 1.28 210.75-0.96L210.75-0.96L210.75-0.96Q209.09-2.82 209.09-4.93L209.09-4.93L209.09-4.93Q209.09-9.73 211.33-20.22L211.33-20.22L216-44.80L228.99-46.08L222.78-13.70L222.78-13.70Q221.70-8.96 221.70-7.30L221.70-7.30L221.70-7.30Q221.70-3.65 224.32-3.52ZM261.18-26.62L261.18-26.62L261.18-26.62Q261.18-23.94 258.94-22.27L258.94-22.27L258.94-22.27Q256.70-20.61 253.06-20.61L253.06-20.61L253.06-20.61Q251.52-20.61 250.62-21.06L250.62-21.06L250.62-21.06Q251.33-22.72 251.55-24.80L251.55-24.80L251.55-24.80Q251.78-26.88 251.78-27.46L251.78-27.46L251.78-27.46Q251.78-30.14 249.92-30.14L249.92-30.14L249.92-30.14Q248.64-30.14 247.20-28.54L247.20-28.54L247.20-28.54Q245.76-26.94 244.54-24.45L244.54-24.45L244.54-24.45Q241.86-18.69 241.86-12.86L241.86-12.86L241.86-12.86Q241.86-9.66 243.07-8.22L243.07-8.22L243.07-8.22Q244.29-6.78 246.98-6.78L246.98-6.78L246.98-6.78Q250.69-6.78 253.63-9.86L253.63-9.86L253.63-9.86Q254.46-10.82 254.91-11.90L254.91-11.90L254.91-11.90Q257.34-10.62 257.34-7.10L257.34-7.10L257.34-7.10Q257.34-3.52 253.38-1.15L253.38-1.15L253.38-1.15Q249.28 1.28 242.75 1.28L242.75 1.28L242.75 1.28Q229.76 1.28 229.76-12.48L229.76-12.48L229.76-12.48Q229.76-22.53 235.46-28.29L235.46-28.29L235.46-28.29Q240.96-33.92 251.07-33.92L251.07-33.92L251.07-33.92Q261.18-33.92 261.18-26.62ZM283.46-2.69L283.46-2.69L283.46-2.69Q280.38 1.28 272.77 1.28L272.77 1.28L272.77 1.28Q268.80 1.28 265.92-1.12L265.92-1.12L265.92-1.12Q263.04-3.52 263.04-6.98L263.04-6.98L263.04-6.98Q263.04-8.90 263.23-9.86L263.23-9.86L267.52-32.64L280.51-33.92L275.84-9.22L275.84-9.22Q275.58-7.81 275.58-6.98L275.58-6.98L275.58-6.98Q275.58-3.26 277.82-3.26L277.82-3.26L277.82-3.26Q280.32-3.26 282.11-6.66L282.11-6.66L282.11-6.66Q282.69-7.74 282.94-9.15L282.94-9.15L287.49-32.64L300.10-33.92L295.36-8.96L295.36-8.96Q295.17-8 295.17-6.98L295.17-6.98L295.17-6.98Q295.17-5.95 295.74-4.83L295.74-4.83L295.74-4.83Q296.32-3.71 298.18-3.46L298.18-3.46L298.18-3.46Q297.79-1.92 296.45-0.90L296.45-0.90L296.45-0.90Q293.63 1.28 290.59 1.28L290.59 1.28L290.59 1.28Q287.55 1.28 285.76 0.19L285.76 0.19L285.76 0.19Q283.97-0.90 283.46-2.69ZM318.85-3.52L318.85-3.52L318.85-3.52Q316.86 1.28 310.53 1.28L310.53 1.28L310.53 1.28Q307.33 1.28 305.28-0.96L305.28-0.96L305.28-0.96Q303.62-2.82 303.62-4.93L303.62-4.93L303.62-4.93Q303.62-9.73 305.86-20.22L305.86-20.22L310.53-44.80L323.52-46.08L317.31-13.70L317.31-13.70Q316.22-8.96 316.22-7.30L316.22-7.30L316.22-7.30Q316.22-3.65 318.85-3.52ZM327.07-1.92L327.07-1.92L327.07-1.92Q325.57-3.58 324.90-6.21L324.90-6.21L324.90-6.21Q324.22-8.83 324.22-13.12L324.22-13.12L324.22-13.12Q324.22-17.41 325.70-21.31L325.70-21.31L325.70-21.31Q327.17-25.22 329.86-28.03L329.86-28.03L329.86-28.03Q335.36-33.92 344.45-33.92L344.45-33.92L344.45-33.92Q347.71-33.92 350.08-32.83L350.08-32.83L361.02-33.92L356.29-8.96L356.29-8.96Q356.10-8.19 356.10-6.78L356.10-6.78L356.10-6.78Q356.10-5.38 356.96-4.48L356.96-4.48L356.96-4.48Q357.82-3.58 359.10-3.46L359.10-3.46L359.10-3.46Q358.46-1.28 356.13 0L356.13 0L356.13 0Q353.79 1.28 351.17 1.28L351.17 1.28L351.17 1.28Q348.54 1.28 346.78 0.29L346.78 0.29L346.78 0.29Q345.02-0.70 344.51-2.37L344.51-2.37L344.51-2.37Q343.49-0.77 341.31 0.26L341.31 0.26L341.31 0.26Q339.14 1.28 336.22 1.28L336.22 1.28L336.22 1.28Q333.31 1.28 330.94 0.51L330.94 0.51L330.94 0.51Q328.58-0.26 327.07-1.92ZM340.58-27.90L340.58-27.90L340.58-27.90Q339.84-26.75 339.20-24.80L339.20-24.80L339.20-24.80Q338.56-22.85 337.50-17.63L337.50-17.63L337.50-17.63Q336.45-12.42 336.45-8.70L336.45-8.70L336.45-8.70Q336.45-4.99 337.02-3.90L337.02-3.90L337.02-3.90Q337.60-2.82 338.62-2.82L338.62-2.82L338.62-2.82Q340.67-2.82 342.18-4.77L342.18-4.77L342.18-4.77Q343.68-6.72 344.26-10.18L344.26-10.18L347.65-28.93L347.65-28.93Q346.30-30.08 344.74-30.08L344.74-30.08L344.74-30.08Q343.17-30.08 342.24-29.57L342.24-29.57L342.24-29.57Q341.31-29.06 340.58-27.90ZM365.50-6.40L365.50-6.40L365.50-6.40Q365.50-8.13 366.40-12.48L366.40-12.48L369.79-29.76L366.02-29.76L366.27-31.68L366.27-31.68Q373.95-33.98 381.38-39.62L381.38-39.62L384.45-39.62L382.91-32.64L387.90-32.64L387.33-29.76L382.40-29.76L379.14-12.48L379.14-12.48Q378.30-8.51 378.30-7.17L378.30-7.17L378.30-7.17Q378.30-4.10 380.99-3.46L380.99-3.46L380.99-3.46Q380.35-1.28 378.05 0L378.05 0L378.05 0Q375.74 1.28 372.48 1.28L372.48 1.28L372.48 1.28Q369.22 1.28 367.36-0.77L367.36-0.77L367.36-0.77Q365.50-2.82 365.50-6.40ZM401.28 1.28L401.28 1.28L401.28 1.28Q387.20 1.28 387.20-11.97L387.20-11.97L387.20-11.97Q387.20-21.38 392.38-27.46L392.38-27.46L392.38-27.46Q397.89-33.92 407.42-33.92L407.42-33.92L407.42-33.92Q414.34-33.92 417.86-30.72L417.86-30.72L417.86-30.72Q421.38-27.52 421.38-20.80L421.38-20.80L421.38-20.80Q421.38-10.56 415.87-4.61L415.87-4.61L415.87-4.61Q410.50 1.28 401.28 1.28ZM402.94-26.56L402.94-26.56L402.94-26.56Q402.18-24.83 401.57-22.24L401.57-22.24L401.57-22.24Q400.96-19.65 400.19-15.55L400.19-15.55L400.19-15.55Q399.42-11.46 399.42-6.40L399.42-6.40L399.42-6.40Q399.42-4.74 399.97-3.65L399.97-3.65L399.97-3.65Q400.51-2.56 401.98-2.56L401.98-2.56L401.98-2.56Q403.46-2.56 404.38-3.26L404.38-3.26L404.38-3.26Q405.31-3.97 406.02-5.63L406.02-5.63L406.02-5.63Q407.30-8.58 408.32-14.05L408.32-14.05L408.32-14.05Q409.34-19.52 409.44-21.89L409.44-21.89L409.44-21.89Q409.54-24.26 409.54-26.02L409.54-26.02L409.54-26.02Q409.54-27.78 409.02-28.93L409.02-28.93L409.02-28.93Q408.51-30.08 407.07-30.08L407.07-30.08L407.07-30.08Q405.63-30.08 404.67-29.18L404.67-29.18L404.67-29.18Q403.71-28.29 402.94-26.56ZM445.18-17.98L445.18-17.98L445.18-17.98Q447.49-22.08 447.49-26.24L447.49-26.24L447.49-26.24Q447.49-28.99 445.50-28.99L445.50-28.99L445.50-28.99Q443.97-28.99 442.37-26.37L442.37-26.37L442.37-26.37Q440.70-23.74 440.19-20.35L440.19-20.35L436.86 0L423.62 1.28L430.14-32.64L440.70-33.92L439.55-27.46L439.55-27.46Q442.69-33.92 449.73-33.92L449.73-33.92L449.73-33.92Q453.44-33.92 455.46-32L455.46-32L455.46-32Q457.47-30.08 457.47-26.14L457.47-26.14L457.47-26.14Q457.47-22.21 454.88-19.71L454.88-19.71L454.88-19.71Q452.29-17.22 447.87-17.22L447.87-17.22L447.87-17.22Q445.95-17.22 445.18-17.98Z" fill="url(#editing-shiny-gradient2)"></path></g></g><style>text {
  font-size: 64px;
  font-family: Arial Black;
  dominant-baseline: central;
  text-anchor: middle;
}</style></svg>